<svg xmlns="http://www.w3.org/2000/svg" viewBox="0 0 32 32">
  <rect width="32" height="32" rx="8" fill="#6366F1"/>
  <path d="M16 6C10.5 6 6 10.5 6 16s4.5 10 10 10 10-4.5 10-10S21.5 6 16 6zm0 2c4.4 0 8 3.6 8 8s-3.6 8-8 8-8-3.6-8-8 3.6-8 8-8z" fill="white" opacity="0.3"/>
  <path d="M16 9c-3.9 0-7 3.1-7 7s3.1 7 7 7 7-3.1 7-7-3.1-7-7-7zm-2 5.5a1.5 1.5 0 110-3 1.5 1.5 0 010 3zm4 3a1.5 1.5 0 110-3 1.5 1.5 0 010 3z" fill="white" opacity="0.8"/>
  <line x1="12.5" y1="14" x2="19.5" y2="17" stroke="white" stroke-width="1.5" stroke-linecap="round"/>
</svg>
